<svg xmlns="http://www.w3.org/2000/svg" width="200" height="100" viewBox="0 0 200 100"><rect width="100%" height="100%" fill="#DDDDDD"/><path fill="#999999" d="M58.625 56.5q.37 0 .65.28l1.75 1.9q-1.46 1.8-3.58 2.76-2.12.95-5.09.95-2.65 0-4.77-.9-2.12-.91-3.62-2.53-1.51-1.62-2.31-3.86-.8-2.24-.8-4.9 0-2.69.86-4.92.86-2.24 2.42-3.86 1.56-1.61 3.72-2.51 2.16-.9 4.78-.9 2.61 0 4.63.85 2.02.86 3.44 2.25l-1.48 2.06q-.13.2-.34.35-.21.15-.57.15-.25 0-.51-.14-.27-.14-.58-.35-.31-.21-.72-.45-.42-.25-.96-.46-.55-.2-1.26-.34-.72-.14-1.66-.14-1.6 0-2.93.56-1.33.57-2.29 1.65-.95 1.09-1.48 2.64-.53 1.56-.53 3.56 0 2.01.57 3.58.57 1.57 1.54 2.64.98 1.07 2.3 1.64 1.32.57 2.83.57.91 0 1.65-.1.73-.1 1.35-.31.62-.22 1.17-.55.55-.34 1.1-.84.16-.15.34-.24.19-.09.38-.09Zm12.3-11.56q1.88 0 3.42.61t2.64 1.73q1.1 1.12 1.69 2.74.6 1.62.6 3.61 0 2.02-.6 3.63-.59 1.62-1.69 2.76-1.1 1.14-2.64 1.75-1.54.61-3.42.61-1.9 0-3.45-.61-1.55-.61-2.65-1.75-1.1-1.14-1.7-2.76-.6-1.61-.6-3.63 0-1.99.6-3.61.6-1.62 1.7-2.74t2.65-1.73q1.55-.61 3.45-.61Zm0 14.3q2.11 0 3.12-1.42 1.02-1.42 1.02-4.15 0-2.74-1.02-4.18-1.01-1.43-3.12-1.43-2.15 0-3.18 1.44-1.03 1.44-1.03 4.17 0 2.72 1.03 4.15 1.03 1.42 3.18 1.42Zm15.54 2.89h-4.08V45.2h2.5q.79 0 1.03.74l.27 1.26q.44-.5.93-.91.49-.41 1.04-.71t1.19-.47q.63-.17 1.39-.17 1.6 0 2.63.86 1.04.87 1.55 2.3.39-.84.99-1.44.59-.6 1.3-.98.71-.38 1.51-.56.8-.18 1.61-.18 1.4 0 2.49.43 1.09.42 1.83 1.25.74.82 1.13 2.01.39 1.19.39 2.73v10.77h-4.08V51.36q0-1.62-.7-2.44-.71-.82-2.08-.82-.63 0-1.17.22-.53.21-.94.62-.4.4-.63 1.01-.23.61-.23 1.41v10.77h-4.1V51.36q0-1.7-.68-2.48-.69-.78-2.01-.78-.89 0-1.65.44-.77.44-1.43 1.2v12.39Zm27.64-11.98v7.59q.69.84 1.51 1.19.81.35 1.72.35.94 0 1.69-.34t1.28-1.06q.53-.72.81-1.83t.28-2.67q0-2.78-.92-4.03-.93-1.25-2.66-1.25-1.17 0-2.05.54-.87.54-1.66 1.51Zm0-12.54v9.67q1.02-1.07 2.27-1.71 1.24-.63 2.84-.63 1.47 0 2.65.57 1.18.58 2.01 1.66.84 1.08 1.28 2.62.45 1.53.45 3.45 0 2.06-.51 3.74-.52 1.68-1.46 2.88-.95 1.2-2.29 1.86-1.34.66-2.97.66-.79 0-1.44-.16-.64-.16-1.18-.44-.55-.28-1-.68-.46-.41-.87-.9l-.18 1.14q-.1.43-.34.61-.24.18-.65.18h-2.69V37.61h4.08Zm22.14 7.33q1.88 0 3.42.61 1.55.61 2.64 1.73 1.1 1.12 1.69 2.74.6 1.62.6 3.61 0 2.02-.6 3.63-.59 1.62-1.69 2.76-1.09 1.14-2.64 1.75-1.54.61-3.42.61-1.9 0-3.45-.61-1.55-.61-2.65-1.75-1.09-1.14-1.7-2.76-.6-1.61-.6-3.63 0-1.99.6-3.61.61-1.62 1.7-2.74 1.1-1.12 2.65-1.73 1.55-.61 3.45-.61Zm0 14.3q2.11 0 3.13-1.42 1.01-1.42 1.01-4.15 0-2.74-1.01-4.18-1.02-1.43-3.13-1.43-2.15 0-3.18 1.44-1.03 1.44-1.03 4.17 0 2.72 1.03 4.15 1.03 1.42 3.18 1.42Zm22.72-12.21-.92 1.47q-.17.26-.35.37-.18.11-.46.11-.3 0-.64-.17-.34-.16-.78-.37-.45-.2-1.02-.37-.57-.16-1.34-.16-1.21 0-1.89.51-.68.51-.68 1.33 0 .55.35.92t.94.65q.59.28 1.33.51.74.22 1.51.48.77.27 1.51.6.74.34 1.33.86.58.52.94 1.25.35.72.35 1.75 0 1.22-.44 2.25-.43 1.03-1.29 1.78-.86.75-2.12 1.17-1.26.42-2.91.42-.88 0-1.71-.15-.83-.16-1.6-.44-.77-.28-1.42-.66-.65-.38-1.15-.83l.94-1.55q.18-.28.43-.43.25-.14.63-.14t.72.21q.34.22.78.46.45.25 1.05.46.6.22 1.52.22.73 0 1.25-.17.52-.18.86-.46.34-.28.49-.65.16-.37.16-.77 0-.59-.35-.97-.36-.38-.95-.66-.58-.28-1.33-.5-.75-.23-1.54-.49-.78-.26-1.53-.62-.75-.35-1.34-.9-.58-.54-.94-1.33-.35-.8-.35-1.92 0-1.04.41-1.98t1.21-1.64q.8-.7 2-1.12 1.2-.42 2.76-.42 1.75 0 3.19.57 1.43.58 2.39 1.52Z"/></svg>