<svg xmlns="http://www.w3.org/2000/svg" width="200" height="80" viewBox="0 0 200 80"><rect width="100%" height="100%" fill="#DDDDDD"/><path fill="#999999" d="m53.52 29.915-.91 1.71q-.16.28-.34.41-.18.13-.45.13-.29 0-.62-.21t-.79-.47q-.46-.25-1.07-.46-.61-.21-1.45-.21-.76 0-1.32.18-.57.18-.96.51-.38.32-.57.77-.19.46-.19 1 0 .69.39 1.14.38.46 1.01.79.64.32 1.45.58.81.25 1.66.54.85.29 1.66.68.81.38 1.44.97.64.59 1.02 1.44.39.85.39 2.06 0 1.33-.45 2.48-.46 1.16-1.33 2.01-.87.86-2.12 1.35-1.26.5-2.88.5-.93 0-1.83-.19-.91-.18-1.74-.52-.83-.33-1.56-.81-.73-.47-1.29-1.05l1.06-1.74q.14-.19.35-.32.22-.13.46-.13.34 0 .73.28.39.28.93.61.54.34 1.27.62.72.28 1.73.28 1.55 0 2.4-.74.85-.74.85-2.11 0-.77-.38-1.26-.39-.48-1.02-.81-.64-.34-1.45-.56-.81-.23-1.64-.5-.84-.27-1.65-.65-.81-.38-1.44-.99-.64-.61-1.02-1.52-.39-.91-.39-2.24 0-1.07.43-2.08.42-1.02 1.23-1.8t2-1.25q1.19-.48 2.73-.48 1.73 0 3.18.54 1.46.54 2.49 1.52Zm6.32-2.38v7.69q.81-.75 1.78-1.22.97-.48 2.28-.48 1.13 0 2.01.39.88.38 1.47 1.08.58.69.89 1.66.3.96.3 2.12v8.82h-3.33v-8.82q0-1.26-.58-1.96-.59-.69-1.77-.69-.87 0-1.62.39-.76.39-1.43 1.06v10.02H56.5v-20.06h3.34Zm18.02 5.99q1.54 0 2.8.5 1.26.5 2.16 1.42.9.92 1.38 2.24.49 1.32.49 2.96t-.49 2.97q-.48 1.32-1.38 2.25-.9.93-2.16 1.43-1.26.5-2.8.5-1.55 0-2.82-.5-1.27-.5-2.17-1.43-.9-.93-1.39-2.25-.49-1.33-.49-2.97 0-1.64.49-2.96t1.39-2.24q.9-.92 2.17-1.42 1.27-.5 2.82-.5Zm0 11.71q1.73 0 2.56-1.16.83-1.16.83-3.41 0-2.24-.83-3.41-.83-1.18-2.56-1.18-1.76 0-2.6 1.19-.84 1.18-.84 3.4 0 2.23.84 3.4t2.6 1.17Zm12.72-7.44v6.21q.56.69 1.23.97.67.28 1.45.28.76 0 1.37-.28.6-.28 1.03-.86.42-.58.65-1.47.23-.88.23-2.08 0-1.22-.19-2.06-.2-.85-.56-1.37-.37-.53-.89-.77t-1.18-.24q-1.04 0-1.77.43-.73.44-1.37 1.24Zm-.45-3.44.27 1.28q.85-.96 1.93-1.55 1.08-.6 2.54-.6 1.13 0 2.07.48.94.47 1.62 1.37.68.89 1.05 2.21.37 1.32.37 3.02 0 1.55-.41 2.87-.42 1.33-1.2 2.3-.77.97-1.87 1.52-1.11.54-2.47.54-1.16 0-1.98-.36-.83-.35-1.47-.99v5.67h-3.34v-18.37h2.04q.65 0 .85.61Zm16.6 10.24h7.81v3H103.1v-19.52h3.63v16.52Zm16-11.07q1.54 0 2.8.5 1.27.5 2.16 1.42.9.92 1.39 2.24.48 1.32.48 2.96t-.48 2.97q-.49 1.32-1.39 2.25-.89.93-2.16 1.43-1.26.5-2.8.5-1.55 0-2.82-.5-1.27-.5-2.17-1.43-.89-.93-1.39-2.25-.49-1.33-.49-2.97 0-1.64.49-2.96.5-1.32 1.39-2.24.9-.92 2.17-1.42 1.27-.5 2.82-.5Zm0 11.71q1.73 0 2.56-1.16.83-1.16.83-3.41 0-2.24-.83-3.41-.83-1.18-2.56-1.18-1.75 0-2.6 1.19-.84 1.18-.84 3.4 0 2.23.84 3.4.85 1.17 2.6 1.17Zm14.45-4.9q.62 0 1.08-.17.46-.17.76-.47.3-.29.46-.71.15-.42.15-.92 0-1.03-.61-1.63-.61-.6-1.84-.6t-1.85.6q-.61.6-.61 1.63 0 .49.16.9.15.42.45.73.31.3.77.47.47.17 1.08.17Zm3.76 7.88q0-.4-.24-.66t-.66-.4q-.42-.14-.98-.21-.56-.07-1.19-.1l-1.29-.06q-.67-.03-1.31-.11-.55.31-.89.73-.35.42-.35.97 0 .37.18.68.19.32.58.55.4.23 1.04.36.63.13 1.55.13.93 0 1.61-.14.67-.15 1.11-.4.44-.25.64-.59.2-.34.2-.75Zm-.66-14h3.98v1.24q0 .6-.71.73l-1.24.23q.28.72.28 1.57 0 1.02-.41 1.85-.41.83-1.14 1.42-.73.58-1.72.89-1 .32-2.14.32-.41 0-.79-.04-.37-.04-.74-.11-.65.39-.65.88 0 .42.39.61.38.2 1.02.28.63.08 1.44.1.81.02 1.66.09.85.07 1.66.24.81.16 1.45.53.63.36 1.02.99.38.63.38 1.61 0 .92-.45 1.79-.45.86-1.31 1.54-.86.67-2.11 1.08-1.24.41-2.84.41-1.56 0-2.72-.3-1.17-.3-1.94-.81-.76-.51-1.14-1.17-.38-.66-.38-1.37 0-.98.59-1.63.58-.66 1.61-1.05-.55-.28-.88-.75-.32-.48-.32-1.25 0-.31.11-.64.12-.33.34-.65.22-.33.56-.62.34-.29.8-.52-1.06-.56-1.66-1.51-.6-.94-.6-2.21 0-1.03.41-1.86.42-.83 1.15-1.42.74-.58 1.74-.89 1.01-.31 2.2-.31.89 0 1.67.18.78.18 1.43.53Zm12.22-.69q1.54 0 2.8.5 1.26.5 2.16 1.42.9.92 1.38 2.24.49 1.32.49 2.96t-.49 2.97q-.48 1.32-1.38 2.25-.9.93-2.16 1.43-1.26.5-2.8.5-1.55 0-2.82-.5-1.27-.5-2.17-1.43-.9-.93-1.39-2.25-.49-1.33-.49-2.97 0-1.64.49-2.96t1.39-2.24q.9-.92 2.17-1.42 1.27-.5 2.82-.5Zm0 11.71q1.73 0 2.56-1.16.83-1.16.83-3.41 0-2.24-.83-3.41-.83-1.18-2.56-1.18-1.76 0-2.6 1.19-.84 1.18-.84 3.4 0 2.23.84 3.4t2.6 1.17Z"/></svg>