<svg xmlns="http://www.w3.org/2000/svg" width="200" height="100" viewBox="0 0 200 100"><rect width="100%" height="100%" fill="#DDDDDD"/><path fill="#999999" d="M42.13 43.71h5.34v22.06h-5.34V43.71Zm6.07-6.43q0 .69-.28 1.29-.28.6-.74 1.06-.47.45-1.09.72-.62.26-1.33.26-.69 0-1.3-.26-.62-.27-1.07-.72-.45-.46-.72-1.06-.27-.6-.27-1.29 0-.71.27-1.33.27-.62.72-1.08.45-.45 1.07-.72.61-.26 1.3-.26.71 0 1.33.26.62.27 1.09.72.46.46.74 1.08.28.62.28 1.33Zm12.04 28.83q-2.88 0-4.42-1.62t-1.54-4.48V47.69h-2.26q-.43 0-.73-.28t-.3-.84v-2.11l3.55-.58 1.12-6.02q.11-.43.41-.66.3-.24.77-.24h2.75v6.94h5.89v3.79h-5.89v11.95q0 1.03.51 1.61.5.59 1.38.59.5 0 .83-.12.34-.12.58-.25.25-.13.44-.25.2-.12.39-.12.24 0 .39.12.15.12.32.36l1.59 2.58q-1.16.96-2.67 1.46-1.5.49-3.11.49ZM73.07 52.2h10.02q0-1.03-.29-1.94-.29-.92-.87-1.6-.58-.69-1.47-1.09-.89-.4-2.08-.4-2.3 0-3.62 1.31-1.32 1.32-1.69 3.72Zm13.55 3.21H72.97q.12 1.7.6 2.93.47 1.24 1.24 2.04.78.81 1.84 1.21 1.07.4 2.36.4 1.29 0 2.22-.3.94-.31 1.64-.67.69-.37 1.22-.67.53-.3 1.02-.3.67 0 .99.5l1.53 1.93q-.88 1.03-1.98 1.73t-2.29 1.12q-1.19.42-2.43.59-1.24.17-2.4.17-2.3 0-4.27-.76-1.98-.76-3.44-2.26-1.47-1.49-2.31-3.7-.83-2.2-.83-5.1 0-2.26.73-4.25.73-1.99 2.09-3.46 1.37-1.47 3.34-2.33 1.96-.86 4.44-.86 2.08 0 3.84.66 1.77.67 3.04 1.95 1.26 1.28 1.98 3.14t.72 4.24q0 1.21-.25 1.63-.26.42-.99.42Zm10.53 10.36h-5.31V43.71h3.25q1.03 0 1.35.97l.35 1.63q.58-.64 1.21-1.18.64-.54 1.36-.92.72-.39 1.54-.62.83-.22 1.82-.22 2.09 0 3.43 1.13 1.34 1.12 2.01 2.99.52-1.09 1.29-1.88.77-.78 1.7-1.28.92-.49 1.97-.73 1.04-.23 2.09-.23 1.83 0 3.25.56 1.42.55 2.39 1.63.96 1.07 1.47 2.62.5 1.55.5 3.55v14.04h-5.31V51.73q0-2.11-.92-3.17-.93-1.07-2.71-1.07-.82 0-1.52.28-.69.28-1.22.81t-.83 1.32q-.3.8-.3 1.83v14.04h-5.33V51.73q0-2.21-.89-3.22-.9-1.02-2.62-1.02-1.16 0-2.16.57-1 .57-1.86 1.56v16.15Zm43.65-21.93-2.8-.49q.33-2.24 1.25-3.93.92-1.69 2.31-2.81 1.39-1.13 3.18-1.7 1.8-.57 3.86-.57 2.15 0 3.88.61t2.96 1.7q1.22 1.08 1.88 2.55.66 1.46.66 3.16 0 1.48-.34 2.61-.33 1.13-.95 1.97-.63.83-1.55 1.41-.93.59-2.09.97 2.8.88 4.17 2.69 1.38 1.81 1.38 4.54 0 2.32-.86 4.1-.86 1.79-2.32 3-1.46 1.22-3.39 1.84-1.92.62-4.07.62-2.35 0-4.09-.53-1.74-.54-3.03-1.59-1.29-1.06-2.19-2.58-.91-1.53-1.55-3.53l2.34-.97q.93-.39 1.73-.2.81.18 1.18.87.38.75.85 1.48.46.73 1.1 1.3.65.57 1.52.93.87.35 2.07.35 1.36 0 2.37-.44t1.69-1.15q.67-.71 1.01-1.58.33-.87.33-1.75 0-1.12-.24-2.03-.23-.92-.99-1.56-.75-.65-2.16-1.01-1.41-.37-3.77-.37v-3.78q1.96-.02 3.25-.37 1.29-.34 2.05-.95.76-.62 1.06-1.48.3-.86.3-1.89 0-2.19-1.22-3.33-1.23-1.14-3.27-1.14-.94 0-1.74.27t-1.43.75q-.63.48-1.06 1.13-.43.64-.65 1.42-.36.99-.96 1.31-.59.32-1.66.15Z"/></svg>