<svg xmlns="http://www.w3.org/2000/svg" width="200" height="100" viewBox="0 0 200 100"><rect width="100%" height="100%" fill="#DDDDDD"/><path fill="#999999" d="m56.03 39.725-1.17 2.23q-.21.36-.45.53-.23.17-.58.17-.37 0-.8-.27-.43-.28-1.02-.61-.6-.33-1.39-.6-.8-.27-1.88-.27-.98 0-1.72.23-.73.24-1.23.66-.5.42-.75 1.01-.24.58-.24 1.28 0 .89.5 1.49.5.59 1.32 1.01.82.42 1.87.76 1.05.33 2.15.71 1.11.37 2.16.87t1.87 1.26q.82.76 1.32 1.86.5 1.11.5 2.68 0 1.72-.59 3.21-.58 1.5-1.71 2.61-1.13 1.11-2.76 1.75-1.63.64-3.73.64-1.2 0-2.38-.24-1.17-.23-2.25-.67-1.07-.44-2.02-1.05-.94-.61-1.68-1.37l1.39-2.25q.17-.25.45-.41.28-.17.6-.17.43 0 .94.36t1.21.79q.7.44 1.63.8.94.36 2.25.36 2.02 0 3.12-.95 1.1-.96 1.1-2.74 0-1-.5-1.63-.5-.63-1.32-1.06-.82-.43-1.87-.73-1.05-.29-2.14-.64-1.08-.35-2.13-.84-1.05-.49-1.87-1.28-.83-.79-1.33-1.97-.49-1.18-.49-2.91 0-1.39.55-2.7.55-1.31 1.6-2.33 1.05-1.01 2.59-1.62 1.54-.62 3.53-.62 2.24 0 4.13.7 1.89.7 3.22 1.96Zm9.86 23.21q-2.35 0-3.6-1.32t-1.25-3.65v-10.03H59.2q-.35 0-.59-.23-.25-.22-.25-.68v-1.71l2.89-.48.91-4.9q.09-.35.33-.54.25-.19.63-.19h2.24v5.65h4.8v3.08h-4.8v9.73q0 .84.41 1.31.41.48 1.13.48.4 0 .67-.1.28-.1.48-.2l.36-.2q.15-.1.31-.1.19 0 .32.1.12.09.26.29l1.29 2.1q-.94.78-2.17 1.19-1.22.4-2.53.4Zm16.52-4.92v-3.03q-1.88.09-3.15.33-1.28.23-2.05.6-.77.37-1.1.86-.34.49-.34 1.07 0 1.13.68 1.62.67.49 1.76.49 1.33 0 2.3-.48.97-.48 1.9-1.46Zm-9.14-9.43-.77-1.38q3.1-2.84 7.46-2.84 1.57 0 2.81.52 1.25.51 2.1 1.43.86.92 1.31 2.2.44 1.28.44 2.8v11.34h-1.96q-.61 0-.94-.18-.33-.19-.53-.75l-.38-1.29q-.68.61-1.33 1.07-.65.47-1.35.78-.7.32-1.5.48-.79.17-1.75.17-1.14 0-2.1-.31-.97-.3-1.67-.92-.7-.61-1.08-1.52-.39-.91-.39-2.12 0-.68.23-1.35.23-.68.74-1.29.52-.61 1.34-1.15.83-.55 2.02-.95 1.2-.4 2.8-.65 1.59-.26 3.64-.31v-1.05q0-1.8-.77-2.67-.77-.87-2.23-.87-1.05 0-1.74.25-.69.24-1.21.55-.53.31-.96.55-.43.25-.95.25-.46 0-.77-.24-.32-.24-.51-.55Zm21.23-2.8.26 2.03q.84-1.61 2-2.53 1.15-.92 2.73-.92 1.24 0 1.99.54l-.28 3.24q-.09.32-.25.45-.17.13-.45.13-.26 0-.78-.09-.51-.09-1-.09-.72 0-1.28.21t-1.01.61q-.44.39-.79.95-.34.56-.63 1.28v11.06h-4.33v-17.96h2.54q.67 0 .93.24t.35.85Zm15.22 17.15q-2.34 0-3.59-1.32t-1.25-3.65v-10.03h-1.84q-.35 0-.6-.23-.24-.22-.24-.68v-1.71l2.89-.48.91-4.9q.08-.35.33-.54.24-.19.63-.19h2.24v5.65h4.79v3.08h-4.79v9.73q0 .84.41 1.31.41.48 1.13.48.4 0 .67-.1t.47-.2q.21-.11.36-.2.16-.1.32-.1.19 0 .31.1.13.09.27.29l1.29 2.1q-.94.78-2.17 1.19-1.22.4-2.54.4Zm10.45-11.32h8.16q0-.84-.24-1.59-.24-.74-.71-1.3t-1.2-.88q-.72-.33-1.69-.33-1.87 0-2.95 1.07-1.07 1.07-1.37 3.03Zm11.03 2.6h-11.12q.11 1.39.49 2.39.39 1.01 1.02 1.67.63.65 1.49.98.87.32 1.92.32 1.05 0 1.81-.25.76-.24 1.33-.54.57-.3 1-.54.43-.25.83-.25.54 0 .81.41l1.24 1.57q-.72.84-1.61 1.41-.89.57-1.87.91-.97.34-1.97.48-1.01.14-1.95.14-1.88 0-3.49-.62-1.61-.62-2.8-1.84-1.19-1.21-1.87-3.01-.68-1.79-.68-4.15 0-1.84.59-3.46.6-1.62 1.71-2.82 1.11-1.2 2.71-1.9 1.6-.7 3.62-.7 1.69 0 3.13.55 1.43.54 2.47 1.58 1.03 1.04 1.61 2.56.59 1.51.59 3.45 0 .98-.21 1.32-.21.34-.8.34Zm8.06-8.43.27 2.03q.84-1.61 1.99-2.53 1.16-.92 2.73-.92 1.24 0 2 .54l-.28 3.24q-.09.32-.26.45-.16.13-.44.13-.27 0-.78-.09-.52-.09-1.01-.09-.72 0-1.28.21t-1 .61q-.45.39-.79.95-.34.56-.64 1.28v11.06h-4.32v-17.96h2.54q.66 0 .92.24.27.24.35.85Zm21.18.86-.98 1.55q-.18.28-.37.4-.19.11-.49.11-.31 0-.67-.17-.36-.18-.83-.4-.48-.22-1.08-.39-.6-.18-1.43-.18-1.27 0-2 .55-.73.54-.73 1.41 0 .58.38.98.38.39 1 .69.62.29 1.41.53.78.24 1.6.52.81.28 1.6.64.79.35 1.41.91.62.55 1 1.32.37.77.37 1.85 0 1.3-.46 2.39-.47 1.09-1.38 1.89-.91.8-2.24 1.24-1.34.45-3.09.45-.93 0-1.82-.17-.88-.16-1.69-.46-.82-.3-1.51-.7-.69-.4-1.21-.88l.99-1.64q.2-.3.46-.46.26-.15.66-.15.41 0 .77.22.35.23.83.49.47.27 1.11.49.64.23 1.62.23.77 0 1.32-.18.55-.19.91-.48.36-.3.52-.69.17-.4.17-.82 0-.63-.38-1.03-.37-.4-.99-.7-.63-.3-1.42-.53-.8-.24-1.63-.52-.83-.28-1.63-.66-.79-.37-1.41-.95-.63-.58-1-1.42-.38-.84-.38-2.03 0-1.1.44-2.1t1.29-1.74q.84-.74 2.11-1.19 1.27-.45 2.93-.45 1.86 0 3.38.62 1.52.61 2.54 1.61Z"/></svg>