<svg xmlns="http://www.w3.org/2000/svg" width="200" height="100" viewBox="0 0 200 100"><rect width="100%" height="100%" fill="#DDDDDD"/><path fill="#999999" d="M56.42 36.305v3.42h-6.76v18.99h-4.17v-18.99h-6.75v-3.42h17.68Zm5.72 7.47.23 1.8q.75-1.43 1.77-2.24 1.02-.82 2.42-.82 1.1 0 1.76.48l-.24 2.87q-.08.28-.23.4-.15.11-.39.11-.24 0-.69-.08-.46-.07-.89-.07-.64 0-1.14.18-.49.19-.89.54-.39.35-.69.84-.31.5-.57 1.13v9.8h-3.83v-15.9h2.25q.59 0 .82.21.23.21.31.75Zm11.21 5.16h7.22q0-.74-.21-1.4-.21-.66-.63-1.16-.42-.49-1.06-.78-.64-.29-1.49-.29-1.66 0-2.62.95-.95.94-1.21 2.68Zm9.76 2.31h-9.84q.09 1.22.43 2.11.34.9.9 1.48t1.33.87q.76.28 1.69.28.93 0 1.61-.21.67-.22 1.18-.49.5-.26.88-.48.38-.21.74-.21.48 0 .71.35l1.1 1.4q-.64.74-1.43 1.25-.79.5-1.65.8-.86.3-1.75.43-.89.12-1.73.12-1.65 0-3.08-.55-1.43-.55-2.48-1.63-1.05-1.07-1.66-2.66-.6-1.59-.6-3.68 0-1.63.52-3.06.53-1.44 1.51-2.5.99-1.06 2.41-1.68 1.42-.62 3.2-.62 1.5 0 2.77.48t2.19 1.4q.91.92 1.43 2.27.52 1.34.52 3.06 0 .86-.19 1.17-.18.3-.71.3Zm7.09-7.74.26 1.26q.48-.48 1.01-.89.54-.41 1.14-.7.59-.29 1.27-.45.69-.16 1.49-.16 1.3 0 2.31.44t1.68 1.24q.68.8 1.03 1.91.35 1.11.35 2.44v10.12h-3.83v-10.12q0-1.46-.67-2.26-.67-.8-2.03-.8-.99 0-1.86.45-.87.45-1.64 1.23v11.5h-3.83v-15.9h2.34q.74 0 .98.69Zm24.14 10.5v-7.13q-.65-.79-1.41-1.12-.77-.32-1.65-.32-.87 0-1.57.32-.7.33-1.19.99-.5.66-.76 1.67-.27 1.02-.27 2.39 0 1.4.23 2.37.22.97.64 1.58.42.61 1.02.88.61.27 1.35.27 1.2 0 2.03-.49.84-.5 1.58-1.41Zm0-18.32h3.83v23.03h-2.34q-.76 0-.96-.7l-.32-1.53q-.97 1.1-2.21 1.78-1.25.68-2.91.68-1.3 0-2.39-.54-1.08-.54-1.86-1.57-.79-1.03-1.21-2.55-.43-1.52-.43-3.48 0-1.76.48-3.28.48-1.52 1.38-2.64.9-1.11 2.16-1.74 1.25-.63 2.82-.63 1.33 0 2.27.42.95.42 1.69 1.13v-8.38Zm7.74 7.13h3.84v15.9h-3.84v-15.9Zm4.37-4.64q0 .5-.2.93-.2.44-.54.76-.33.33-.78.52t-.96.19q-.5 0-.94-.19-.44-.19-.77-.52-.32-.32-.51-.76-.2-.43-.2-.93 0-.51.2-.96.19-.45.51-.77.33-.33.77-.52.44-.2.94-.2.51 0 .96.2.45.19.78.52.34.32.54.77t.2.96Zm6.7 5.33.26 1.26q.48-.48 1.01-.89.54-.41 1.14-.7.59-.29 1.27-.45.69-.16 1.49-.16 1.3 0 2.31.44t1.68 1.24q.68.8 1.03 1.91.35 1.11.35 2.44v10.12h-3.83v-10.12q0-1.46-.67-2.26-.67-.8-2.03-.8-.99 0-1.86.45-.87.45-1.64 1.23v11.5h-3.83v-15.9h2.34q.74 0 .98.69Zm19.98 6.87q.71 0 1.24-.19.52-.2.87-.54t.53-.82q.18-.48.18-1.05 0-1.18-.71-1.87-.7-.69-2.11-.69-1.42 0-2.12.69-.71.69-.71 1.87 0 .56.18 1.04t.53.82q.35.35.88.55.54.19 1.24.19Zm4.32 9.05q0-.46-.28-.76-.28-.29-.76-.45-.48-.17-1.12-.24-.65-.08-1.37-.12-.72-.04-1.48-.07-.77-.03-1.5-.12-.64.35-1.03.83-.4.48-.4 1.12 0 .42.21.78.21.37.67.63.46.26 1.19.41.72.15 1.78.15 1.07 0 1.84-.17.78-.16 1.28-.44.5-.29.74-.69.23-.39.23-.86Zm-.76-16.07h4.57v1.43q0 .68-.82.83l-1.42.27q.32.82.32 1.79 0 1.18-.47 2.14-.47.95-1.31 1.61-.84.67-1.98 1.04-1.14.36-2.45.36-.47 0-.9-.05-.44-.04-.86-.12-.74.45-.74 1.01 0 .48.44.7.44.23 1.17.32t1.66.12q.93.02 1.91.1.97.07 1.9.27.93.19 1.66.61.73.42 1.17 1.14.44.72.44 1.85 0 1.06-.52 2.05-.51.99-1.5 1.77-.98.77-2.42 1.24-1.43.48-3.26.48-1.8 0-3.13-.35-1.33-.35-2.22-.93-.88-.58-1.31-1.34-.44-.76-.44-1.58 0-1.12.68-1.87.67-.75 1.85-1.2-.64-.33-1.01-.87t-.37-1.43q0-.35.13-.73t.39-.76q.25-.37.64-.7.39-.33.92-.6-1.21-.65-1.9-1.73-.69-1.09-.69-2.55 0-1.17.47-2.13.47-.95 1.32-1.62.84-.68 2-1.04 1.15-.35 2.52-.35 1.02 0 1.92.21.9.21 1.64.61Z"/></svg>