<svg xmlns="http://www.w3.org/2000/svg" width="200" height="100" viewBox="0 0 200 100"><rect width="100%" height="100%" fill="#DDDDDD"/><path fill="#999999" d="M54.02 42.52h2.13V57.7h-2.49v-9.81q0-.59.07-1.27l-4.59 8.62q-.33.62-1 .62h-.4q-.67 0-1-.62l-4.64-8.65q.03.35.05.68.03.34.03.62v9.81h-2.49V42.52h2.13q.19 0 .32.01.14.01.25.05.11.04.2.14.09.09.17.25l4.55 8.43q.18.34.33.69.15.36.3.74.15-.39.3-.75.16-.37.34-.7l4.48-8.41q.09-.16.18-.25.1-.1.21-.14.11-.04.24-.05.14-.01.33-.01Zm10.79 12.4V53.1q-1.12.05-1.89.2-.76.14-1.22.36-.47.22-.67.51-.2.3-.2.64 0 .68.41.98.4.29 1.05.29.8 0 1.38-.29.59-.28 1.14-.87Zm-5.48-5.66-.46-.83q1.86-1.7 4.47-1.7.95 0 1.69.31.75.31 1.26.86.52.55.79 1.32.26.76.26 1.68v6.8h-1.17q-.37 0-.57-.11-.2-.11-.31-.45l-.23-.77q-.41.36-.8.64-.39.28-.81.47-.42.19-.9.29-.48.1-1.05.1-.69 0-1.26-.19-.58-.18-1-.55-.42-.36-.65-.91-.23-.55-.23-1.27 0-.41.13-.81.14-.41.45-.78.31-.36.8-.69.5-.33 1.21-.57.72-.24 1.68-.39.96-.15 2.18-.18v-.63q0-1.09-.46-1.61t-1.33-.52q-.63 0-1.05.15-.41.15-.73.33-.31.19-.57.33-.26.15-.57.15-.27 0-.46-.14t-.31-.33Zm10.53-2.33h2.61V57.7h-2.61V46.93Zm2.97-3.14q0 .33-.14.63-.14.29-.36.51-.23.22-.53.35-.31.13-.65.13t-.64-.13q-.3-.13-.52-.35-.22-.22-.35-.51-.13-.3-.13-.63 0-.35.13-.65.13-.31.35-.53.22-.22.52-.35.3-.13.64-.13t.65.13q.3.13.53.35.22.22.36.53.14.3.14.65Zm4.53 3.61.18.85q.33-.33.69-.6.36-.28.76-.48.41-.19.87-.3.46-.11 1.01-.11.88 0 1.56.3.69.3 1.14.84.46.54.69 1.29.24.75.24 1.65v6.86h-2.59v-6.86q0-.98-.45-1.52-.46-.55-1.38-.55-.67 0-1.26.31-.59.3-1.11.83v7.79h-2.6V46.93h1.59q.5 0 .66.47Zm20.43 6.72q.24 0 .41.18l1.12 1.21q-.93 1.14-2.28 1.75-1.35.61-3.24.61-1.69 0-3.04-.58-1.34-.58-2.3-1.61-.96-1.03-1.47-2.45-.5-1.43-.5-3.12 0-1.71.54-3.14.55-1.42 1.54-2.45.99-1.03 2.37-1.6 1.37-.57 3.04-.57 1.66 0 2.95.54 1.28.55 2.19 1.43l-.95 1.32q-.08.12-.21.22-.13.09-.37.09-.15 0-.32-.09t-.37-.22q-.2-.13-.46-.29-.26-.16-.61-.29-.35-.13-.8-.22-.46-.09-1.06-.09-1.02 0-1.86.37-.85.36-1.46 1.05-.6.68-.94 1.68-.34.99-.34 2.26 0 1.28.37 2.28.36.99.98 1.68.62.68 1.46 1.04t1.8.36q.58 0 1.05-.06.46-.06.86-.2.39-.14.74-.35.36-.22.7-.53.11-.1.22-.15.12-.06.24-.06Zm7.83-7.36q1.19 0 2.18.39.98.39 1.68 1.1.69.71 1.07 1.74.38 1.03.38 2.3 0 1.28-.38 2.31t-1.07 1.76q-.7.72-1.68 1.11-.99.39-2.18.39-1.21 0-2.2-.39-.98-.39-1.68-1.11-.7-.73-1.08-1.76-.39-1.03-.39-2.31 0-1.27.39-2.3.38-1.03 1.08-1.74.7-.71 1.68-1.1.99-.39 2.2-.39Zm0 9.1q1.34 0 1.99-.9.64-.9.64-2.65 0-1.74-.64-2.65-.65-.92-1.99-.92-1.37 0-2.02.92-.66.92-.66 2.65 0 1.74.66 2.64.65.91 2.02.91Zm13.98-8.93h2.6V57.7h-1.59q-.51 0-.65-.47l-.18-.86q-.66.67-1.46 1.08-.8.42-1.88.42-.88 0-1.56-.3-.67-.3-1.14-.85-.46-.54-.69-1.29-.24-.75-.24-1.66v-6.84h2.59v6.84q0 .99.46 1.53t1.37.54q.67 0 1.26-.3t1.11-.82v-7.79Zm7.45.65.15 1.22q.51-.97 1.2-1.52t1.64-.55q.75 0 1.2.32l-.17 1.95q-.05.18-.15.26-.1.08-.27.08-.16 0-.47-.05-.31-.05-.6-.05-.43 0-.77.12-.33.13-.6.37-.27.23-.48.57-.2.33-.38.76v6.64h-2.59V46.93h1.52q.4 0 .56.14.15.14.21.51Zm12.7.51-.59.94q-.1.16-.22.23-.11.07-.29.07-.19 0-.4-.1-.22-.11-.5-.24-.29-.13-.65-.24-.36-.1-.85-.1-.77 0-1.21.32-.43.33-.43.85 0 .35.22.59.23.23.6.41.37.18.85.32.47.14.96.31.49.17.96.39.47.21.84.54.38.33.6.79.23.47.23 1.12 0 .77-.28 1.43-.28.66-.82 1.13-.55.48-1.35.75-.81.27-1.86.27-.55 0-1.08-.1t-1.02-.28q-.49-.18-.91-.42-.41-.24-.73-.53l.6-.98q.12-.18.28-.28.15-.09.4-.09.24 0 .45.14.22.13.5.29.28.16.67.29.38.14.97.14.46 0 .79-.11t.55-.29q.21-.18.31-.41.1-.24.1-.49 0-.38-.22-.62-.23-.24-.6-.42t-.85-.32q-.48-.14-.98-.31-.5-.17-.98-.39-.47-.23-.85-.58-.37-.34-.59-.85-.23-.5-.23-1.21 0-.67.26-1.26.26-.6.77-1.05.51-.45 1.27-.71.77-.27 1.76-.27 1.12 0 2.03.37.91.36 1.52.96Zm4.12 2.98h4.89q0-.5-.14-.95-.14-.44-.43-.78-.28-.33-.72-.53-.43-.19-1.01-.19-1.12 0-1.77.64-.64.64-.82 1.81Zm6.61 1.57h-6.66q.06.83.29 1.43.23.61.61 1t.9.59q.52.19 1.15.19.63 0 1.08-.15.46-.14.8-.32t.6-.33q.26-.14.5-.14.32 0 .48.24l.75.94q-.43.51-.97.85-.53.34-1.12.54-.58.21-1.18.29-.61.09-1.17.09-1.13 0-2.09-.38-.97-.37-1.68-1.1-.72-.73-1.13-1.8-.41-1.08-.41-2.5 0-1.1.36-2.07.36-.97 1.02-1.69.67-.72 1.63-1.14.96-.42 2.17-.42 1.02 0 1.88.32.86.33 1.48.95.62.63.97 1.54t.35 2.07q0 .59-.12.79-.13.21-.49.21Zm9.72-4.55-.59.94q-.11.16-.22.23-.12.07-.3.07-.19 0-.4-.1-.22-.11-.5-.24t-.65-.24q-.36-.1-.85-.1-.77 0-1.2.32-.44.33-.44.85 0 .35.23.59.22.23.59.41.38.18.85.32t.96.31q.49.17.96.39.47.21.85.54.37.33.6.79.22.47.22 1.12 0 .77-.28 1.43-.28.66-.82 1.13-.55.48-1.35.75t-1.85.27q-.56 0-1.09-.1t-1.02-.28q-.49-.18-.9-.42-.42-.24-.73-.53l.6-.98q.11-.18.27-.28.16-.09.4-.09.24 0 .46.14.21.13.49.29.29.16.67.29.38.14.97.14.46 0 .79-.11.34-.11.55-.29.22-.18.32-.41.1-.24.1-.49 0-.38-.23-.62t-.6-.42q-.37-.18-.85-.32t-.98-.31q-.49-.17-.97-.39-.48-.23-.85-.58-.38-.34-.6-.85-.23-.5-.23-1.21 0-.67.27-1.26.26-.6.77-1.05.51-.45 1.27-.71.76-.27 1.76-.27 1.11 0 2.02.37.92.36 1.53.96Z"/></svg>