<svg xmlns="http://www.w3.org/2000/svg" width="200" height="100" viewBox="0 0 200 100"><rect width="100%" height="100%" fill="#DDDDDD"/><path fill="#999999" d="M44.69 54.325h3.53q.98 0 1.64-.23.66-.24 1.06-.63t.57-.91q.18-.52.18-1.1 0-.61-.2-1.1-.19-.49-.61-.83-.42-.35-1.07-.53-.66-.18-1.58-.18h-3.52v5.51Zm2.97-13.36h-2.97v5.43h2.78q1.79 0 2.71-.65.91-.65.91-2.07 0-1.47-.83-2.09-.83-.62-2.6-.62Zm-6.47-2.71h6.47q1.85 0 3.16.35t2.15 1q.84.65 1.23 1.58.39.92.39 2.08 0 .66-.19 1.26-.2.61-.61 1.14-.41.52-1.04.95-.63.43-1.5.73 3.87.87 3.87 4.18 0 1.2-.45 2.21-.46 1.02-1.33 1.75-.87.74-2.14 1.15-1.28.42-2.91.42h-7.1v-18.8Zm19.15 10.6h6.06q0-.63-.18-1.18-.18-.55-.53-.97-.35-.41-.89-.65-.54-.25-1.25-.25-1.39 0-2.19.8-.8.79-1.02 2.25Zm8.19 1.93h-8.26q.08 1.03.37 1.78.28.75.75 1.23.47.49 1.11.73.65.24 1.43.24.78 0 1.34-.18.57-.18.99-.4.42-.22.74-.41.32-.18.62-.18.4 0 .6.3l.92 1.17q-.53.62-1.2 1.05-.66.42-1.38.67-.72.26-1.47.36-.75.11-1.45.11-1.39 0-2.59-.47-1.19-.46-2.08-1.36-.88-.91-1.39-2.24-.51-1.33-.51-3.09 0-1.36.45-2.56.44-1.21 1.26-2.1.83-.89 2.02-1.41 1.19-.52 2.68-.52 1.26 0 2.33.41 1.07.4 1.83 1.17.77.78 1.21 1.9.43 1.13.43 2.57 0 .73-.15.98-.16.25-.6.25Zm12.65-7.07h2.53l-5.29 13.34h-2.91l-5.29-13.34h2.65q.36 0 .6.17t.32.43l2.58 7.12q.2.63.36 1.23.16.59.27 1.19.13-.6.29-1.19.16-.6.38-1.23l2.62-7.12q.09-.26.33-.43.23-.17.56-.17Zm6.77 5.14h6.06q0-.63-.18-1.18-.17-.55-.52-.97-.36-.41-.89-.65-.54-.25-1.26-.25-1.39 0-2.19.8-.8.79-1.02 2.25Zm8.19 1.93h-8.26q.08 1.03.37 1.78.28.75.75 1.23.47.49 1.11.73.65.24 1.43.24.78 0 1.34-.18.57-.18.99-.4.42-.22.74-.41.32-.18.62-.18.4 0 .6.3l.92 1.17q-.53.62-1.2 1.05-.66.42-1.38.67-.72.26-1.47.36-.75.11-1.45.11-1.39 0-2.59-.47-1.19-.46-2.08-1.36-.88-.91-1.39-2.24-.5-1.33-.5-3.09 0-1.36.44-2.56.44-1.21 1.27-2.1.82-.89 2.01-1.41 1.19-.52 2.69-.52 1.26 0 2.32.41 1.07.4 1.84 1.17.76.78 1.2 1.9.43 1.13.43 2.57 0 .73-.15.98-.16.25-.6.25Zm5.99-6.26.2 1.51q.62-1.2 1.48-1.88.86-.69 2.03-.69.92 0 1.48.41l-.21 2.4q-.06.24-.19.33-.12.1-.33.1-.19 0-.58-.06-.38-.07-.74-.07-.54 0-.95.16-.42.15-.75.45-.33.29-.59.7-.25.42-.47.95v8.22H99.3v-13.34h1.88q.5 0 .69.18.2.17.26.63Zm13.91 9.08v-2.24q-1.39.06-2.34.24-.95.17-1.52.44-.57.28-.82.64-.24.37-.24.79 0 .85.5 1.21.5.37 1.3.37.99 0 1.71-.36t1.41-1.09Zm-6.78-7-.58-1.03q2.31-2.11 5.54-2.11 1.17 0 2.1.39.92.38 1.56 1.06.63.69.96 1.64.34.94.34 2.08v8.42h-1.46q-.46 0-.7-.14-.25-.13-.39-.55l-.29-.96q-.51.45-.99.8-.48.34-1 .58-.52.23-1.11.35-.59.13-1.31.13-.84 0-1.56-.23-.71-.23-1.23-.68-.52-.46-.81-1.13-.28-.68-.28-1.58 0-.5.17-1t.55-.96q.38-.45.99-.86.61-.4 1.51-.7.89-.3 2.07-.49 1.18-.19 2.7-.22v-.78q0-1.34-.57-1.99-.57-.64-1.65-.64-.78 0-1.29.18-.52.18-.91.41-.39.23-.71.41-.31.18-.7.18-.34 0-.58-.17-.23-.18-.37-.41Zm17.81 3.46q.59 0 1.04-.17.44-.16.73-.45.29-.28.44-.68.15-.41.15-.89 0-.99-.59-1.56-.59-.58-1.77-.58-1.19 0-1.78.58-.59.57-.59 1.56 0 .47.15.87.15.41.44.7.29.29.74.45.45.17 1.04.17Zm3.62 7.59q0-.39-.23-.64t-.64-.38q-.4-.14-.94-.2-.54-.07-1.14-.1l-1.25-.06q-.65-.03-1.26-.1-.53.29-.86.7-.33.4-.33.93 0 .36.17.66.18.31.56.53.39.22 1 .34.61.13 1.49.13.9 0 1.55-.14t1.07-.38q.42-.24.62-.57.19-.33.19-.72Zm-.63-13.48h3.83v1.19q0 .57-.69.7l-1.19.23q.27.68.27 1.5 0 .99-.4 1.79-.39.8-1.1 1.36-.7.56-1.65.86-.96.31-2.06.31-.39 0-.76-.04-.36-.04-.71-.1-.63.37-.63.84 0 .4.37.59.37.19.99.27.61.08 1.39.1.78.02 1.6.08.81.07 1.59.23t1.4.51q.61.35.98.96.37.6.37 1.55 0 .89-.44 1.72-.43.83-1.26 1.48-.82.65-2.03 1.05-1.2.39-2.73.39-1.51 0-2.63-.29-1.12-.29-1.86-.78-.74-.49-1.1-1.12-.37-.64-.37-1.33 0-.94.57-1.57.56-.63 1.55-1-.53-.28-.84-.73-.32-.46-.32-1.2 0-.3.12-.62.11-.31.32-.63.21-.31.54-.59.32-.28.77-.5-1.02-.54-1.6-1.45-.57-.91-.57-2.14 0-.98.39-1.78.4-.8 1.11-1.37.71-.56 1.67-.86.97-.3 2.12-.3.85 0 1.61.17.75.18 1.38.52Zm8.39 4.68h6.06q0-.63-.17-1.18-.18-.55-.53-.97-.35-.41-.89-.65-.54-.25-1.25-.25-1.4 0-2.19.8-.8.79-1.03 2.25Zm8.19 1.93h-8.25q.08 1.03.36 1.78.29.75.76 1.23.47.49 1.11.73.64.24 1.42.24.78 0 1.35-.18.56-.18.99-.4.42-.22.74-.41.32-.18.61-.18.41 0 .6.3l.93 1.17q-.54.62-1.2 1.05-.66.42-1.38.67-.73.26-1.47.36-.75.11-1.45.11-1.39 0-2.59-.47-1.2-.46-2.08-1.36-.88-.91-1.39-2.24-.51-1.33-.51-3.09 0-1.36.44-2.56.45-1.21 1.27-2.1.83-.89 2.02-1.41 1.19-.52 2.68-.52 1.26 0 2.33.41 1.06.4 1.83 1.17.77.78 1.2 1.9.44 1.13.44 2.57 0 .73-.16.98-.15.25-.6.25Zm12.03-5.63-.73 1.16q-.13.21-.27.29-.14.09-.37.09-.23 0-.5-.13-.26-.13-.61-.29-.35-.17-.8-.3-.45-.13-1.06-.13-.95 0-1.49.41-.54.4-.54 1.05 0 .43.28.72t.74.51q.46.23 1.05.4.58.18 1.19.38.6.21 1.19.48.58.27 1.04.68.46.4.74.98.28.57.28 1.37 0 .97-.34 1.78-.35.81-1.02 1.4-.68.59-1.67.93-1 .33-2.3.33-.69 0-1.34-.13-.66-.12-1.26-.34-.61-.22-1.12-.52-.52-.3-.91-.65l.75-1.22q.14-.22.33-.34.2-.12.5-.12t.56.17q.27.17.62.37.35.19.83.36.47.17 1.2.17.57 0 .98-.14.41-.13.68-.36.26-.22.39-.51.12-.29.12-.6 0-.47-.28-.77-.28-.3-.74-.52-.46-.22-1.05-.4-.6-.17-1.21-.38-.62-.21-1.21-.49t-1.05-.71q-.47-.43-.75-1.05-.28-.62-.28-1.51 0-.82.33-1.56.32-.74.96-1.29.63-.55 1.57-.88.94-.34 2.18-.34 1.37 0 2.5.46 1.14.45 1.89 1.19Z"/></svg>